<svg width="35.000000" height="35.000000" viewBox="0 0 35 35" fill="none" xmlns="http://www.w3.org/2000/svg" xmlns:xlink="http://www.w3.org/1999/xlink">
	<desc>
			Created with Pixso.
	</desc>
	<defs/>
	<circle id="Ellipse 1" cx="17.500000" cy="17.500000" r="16.500000" stroke="#0A847E" stroke-opacity="1.000000" stroke-width="2.000000"/>
	<path id="Arrow-left" d="M21.58 16L17.63 12.05C17.24 11.65 17.24 11.03 17.63 10.63C18.03 10.24 18.65 10.24 19.04 10.63L24.7 16.29C25.1 16.68 25.1 17.31 24.7 17.7L19.04 23.36C18.65 23.75 18.03 23.75 17.63 23.36C17.24 22.96 17.24 22.34 17.63 21.94L21.58 18L11 18C10.44 18 10 17.56 10 17C10 16.43 10.44 16 11 16L21.58 16Z" fill="#0A847E" fill-opacity="1.000000" fill-rule="evenodd"/>
</svg>
