<svg width="35.000000" height="35.000000" viewBox="0 0 35 35" fill="none" xmlns="http://www.w3.org/2000/svg" xmlns:xlink="http://www.w3.org/1999/xlink">
	<desc>
			Created with Pixso.
	</desc>
	<defs/>
	<circle id="Ellipse 1" r="16.500000" transform="matrix(-1 0 0 1 17.5 17.5)" stroke="#0A847E" stroke-opacity="1.000000" stroke-width="2.000000"/>
	<path id="Arrow-left" d="M13.41 16L17.36 12.05C17.75 11.65 17.75 11.03 17.36 10.63C16.96 10.24 16.34 10.24 15.95 10.63L10.29 16.29C9.89 16.68 9.89 17.31 10.29 17.7L15.95 23.36C16.34 23.75 16.96 23.75 17.36 23.36C17.75 22.96 17.75 22.34 17.36 21.94L13.41 18L24 18C24.55 18 25 17.56 25 17C25 16.43 24.55 16 24 16L13.41 16Z" fill="#0A847E" fill-opacity="1.000000" fill-rule="evenodd"/>
</svg>
