<svg width="22" height="22" viewBox="0 0 22 22" fill="none" xmlns="http://www.w3.org/2000/svg">
<path d="M1 7.08516C1.02203 5.21053 1.83698 3.58311 3.29069 2.3265C3.86336 1.81149 4.67832 0.905078 5.55935 1.00808C6.48444 1.11108 7.14522 2.05869 7.60776 2.7385C8.40069 3.89212 9.67819 5.58134 8.51082 6.87916C7.93815 7.49716 7.05711 7.82677 6.55052 8.48598C6.0219 9.16579 6.33026 10.0516 6.7047 10.752C7.51965 12.297 8.92931 13.7596 10.339 14.8515C10.9777 15.3253 11.8367 15.9227 12.6957 15.7785C13.5988 15.6343 14.2816 14.7073 14.9644 14.2129C16.6604 12.9356 18.5106 14.6867 19.766 15.7167C20.3387 16.2111 21.0215 16.8497 20.9995 17.6325C20.9554 18.4359 19.8541 19.0951 19.2374 19.5689C17.5855 20.8461 15.515 21.2581 13.4446 20.8461C11.198 20.4135 9.30375 19.1569 7.60776 17.7561C5.86772 16.3347 4.41401 14.6249 3.15853 12.8326C2.56384 11.988 2.05724 11.1228 1.6828 10.1752C1.28634 9.16579 1.15418 8.15637 1 7.08516ZM1 7.08516C1.02203 6.05514 1.0881 7.64137 1 7.08516Z" stroke="white" stroke-width="1.5" stroke-miterlimit="10" stroke-linecap="round" stroke-linejoin="round"/>
</svg>
