<svg width="45.701172" height="40.000000" viewBox="0 0 45.7012 40" fill="none" xmlns="http://www.w3.org/2000/svg" xmlns:xlink="http://www.w3.org/1999/xlink">
	<desc>
			Created with Pixso.
	</desc>
	<defs/>
	<path id="Vector" d="M40.97 1.86L35.25 1.86C34.72 1.86 34.32 1.43 34.32 0.93C34.32 0.42 34.75 0 35.25 0L40.97 0C41.5 0 41.9 0.42 41.9 0.93C41.9 1.43 41.5 1.86 40.97 1.86Z" fill="#FFFFFF" fill-opacity="1.000000" fill-rule="nonzero"/>
	<path id="Vector" d="M42.88 40L2.83 40C1.26 40 0 38.71 0 37.16L0 8.56C0 6.98 1.28 5.72 2.83 5.72L8.49 5.72C8.82 5.72 9.11 5.55 9.3 5.29L11.97 1.26C12.49 0.47 13.38 0 14.33 0L23.73 0C24.68 0 25.56 0.47 26.09 1.26L28.76 5.29C28.95 5.55 29.24 5.72 29.57 5.72L42.86 5.72C44.43 5.72 45.7 7.01 45.7 8.56L45.7 37.16C45.72 38.71 44.46 40 42.88 40ZM2.83 7.58C2.31 7.58 1.86 8.01 1.86 8.56L1.86 37.16C1.86 37.68 2.29 38.13 2.83 38.13L42.86 38.13C43.38 38.13 43.83 37.71 43.83 37.16L43.83 8.56C43.83 8.03 43.41 7.58 42.86 7.58L29.57 7.58C28.62 7.58 27.74 7.1 27.21 6.32L24.54 2.29C24.35 2.02 24.06 1.86 23.73 1.86L14.35 1.86C14.02 1.86 13.73 2.02 13.54 2.29L10.87 6.32C10.35 7.1 9.46 7.58 8.51 7.58L2.83 7.58Z" fill="#FFFFFF" fill-opacity="1.000000" fill-rule="nonzero"/>
	<path id="Vector" d="M19.05 31.41C13.28 31.41 8.58 26.71 8.58 20.94C8.58 15.16 13.28 10.47 19.05 10.47C24.82 10.47 29.52 15.16 29.52 20.94C29.52 26.71 24.82 31.41 19.05 31.41ZM19.05 12.35C14.31 12.35 10.47 16.21 10.47 20.94C10.47 25.66 14.33 29.52 19.05 29.52C23.77 29.52 27.64 25.66 27.64 20.94C27.64 16.21 23.77 12.35 19.05 12.35Z" fill="#FFFFFF" fill-opacity="1.000000" fill-rule="nonzero"/>
	<path id="Vector" d="M36.2 16.17C34.63 16.17 33.36 14.88 33.36 13.33C33.36 11.78 34.65 10.49 36.2 10.49C37.78 10.49 39.04 11.78 39.04 13.33C39.04 14.88 37.78 16.17 36.2 16.17ZM36.2 12.35C35.68 12.35 35.22 12.78 35.22 13.33C35.22 13.85 35.65 14.31 36.2 14.31C36.73 14.31 37.18 13.88 37.18 13.33C37.18 12.78 36.73 12.35 36.2 12.35Z" fill="#FFFFFF" fill-opacity="1.000000" fill-rule="nonzero"/>
</svg>
